<svg id="svg" viewBox="0 0 300 300" version="1.1" width="900" height="660" xmlns="http://www.w3.org/2000/svg" xmlns:xlink="http://www.w3.org/1999/xlink" ><g id="svgg"><path id="path0" d="M190.667 0.259 C 189.811 0.356,186.911 0.657,184.222 0.927 C 129.567 6.415,81.400 44.878,63.494 97.333 C 36.203 177.282,82.122 262.864,163.778 284.236 C 176.422 287.545,185.436 288.642,200.000 288.642 C 290.116 288.642,357.717 208.038,342.182 119.111 C 332.055 61.139,286.505 14.497,228.688 2.894 C 217.845 0.718,198.442 -0.627,190.667 0.259 M211.333 11.111 C 305.522 19.652,361.534 119.151,319.792 203.778 C 289.182 265.834,215.565 294.351,151.333 269.031 C 77.460 239.912,44.925 154.012,81.019 83.384 C 101.163 43.968,141.279 16.121,184.444 11.590 C 187.011 11.321,189.711 11.033,190.444 10.950 C 193.555 10.600,206.825 10.702,211.333 11.111 M194.444 56.965 C 186.060 58.552,178.139 66.282,176.422 74.551 C 175.775 77.671,175.984 81.022,177.748 95.778 C 178.508 102.133,180.732 121.333,182.690 138.444 C 184.647 155.556,186.438 170.744,186.669 172.197 C 188.425 183.233,203.012 186.862,209.528 177.882 C 211.597 175.032,211.785 174.194,213.307 161.111 C 214.046 154.756,216.373 134.756,218.478 116.667 C 220.583 98.578,222.411 82.241,222.541 80.364 C 223.556 65.689,209.628 54.090,194.444 56.965 M195.508 195.282 C 175.478 201.086,179.238 230.450,200.000 230.368 C 218.882 230.293,224.732 205.003,207.803 196.636 C 204.027 194.769,199.136 194.231,195.508 195.282 " stroke="none" fill="#000000" fill-rule="evenodd"></path></g></svg>
